# xmcd CD database file
#
# Track frame offsets:
#	150
#	21192
#	38612
#	62977
#	99422
#	118290
#	145315
#	175007
#	200490
#	234010
#	257662
#
# Disc length: 3986 seconds
#
# Revision: 0
# Processed by: cddbd v1.5.1PL0 Copyright (c) Steve Scherf et al.
# Submitted via: CDex 1.50
#
DISCID=910f900b
DTITLE=Swim Two Birds - The Bloody Thumb Cookbook
DYEAR=1994
DGENRE=Jazz
TTITLE0=Tit Bit
TTITLE1=Sword
TTITLE2=The Adventures Of K. M.
TTITLE3=Ionian Galaxy
TTITLE4=Doggy Love
TTITLE5=The Bloody Thumb
TTITLE6=Gin Lane
TTITLE7=The Undead Mescalworm
TTITLE8=Jellied Termintes
TTITLE9=Miss Farina
TTITLE10=Quiet Moments
EXTD=YEAR: 1994
EXTT0=
EXTT1=
EXTT2=
EXTT3=
EXTT4=
EXTT5=
EXTT6=
EXTT7=
EXTT8=
EXTT9=
EXTT10=
PLAYORDER=
